# xmcd
#
# Track frame offsets: 
#        150
#        15728
#        29308
#        43435
#        56877
#        71763
#        84844
#        99778
#        114920
#        128966
#        143257
#        158205
#        172824
#        185305
#        198892
#        210872
#        224499
#        239431
#        254403
#
# Disc length: 3604 seconds
#
# Revision: 0
# Processed by: cddbd v1.5.2PL0 Copyright (c) Steve Scherf et al.
# Submitted via: ExactAudioCopy v0.99pb5
#
DISCID=fe0e1213
DTITLE=Billie Holiday  - Tenderly
DYEAR=1900
DGENRE=
TTITLE0=Tenderly
TTITLE1=That Old Devil Called Love
TTITLE2=On the Sunny Side of teh Street
TTITLE3=You Go to My Head
TTITLE4=Please Tell Me Now
TTITLE5=No More
TTITLE6=Baby Get Lost
TTITLE7=He's Funny That Way
TTITLE8=The Blues Are Brewing
TTITLE9=If Dreams Come True
TTITLE10=Gloomy Sunday
TTITLE11=Deep Song
TTITLE12=Back in Your Own Backyard
TTITLE13=Somebody's on My Mind
TTITLE14=Remember
TTITLE15=There's No Greater Love
TTITLE16=I Can't Face This Music
TTITLE17=Now Or Never
TTITLE18=I Cover the Waterfront
EXTD=
EXTT0=
EXTT1=
EXTT2=
EXTT3=
EXTT4=
EXTT5=
EXTT6=
EXTT7=
EXTT8=
EXTT9=
EXTT10=
EXTT11=
EXTT12=
EXTT13=
EXTT14=
EXTT15=
EXTT16=
EXTT17=
EXTT18=
PLAYORDER=
